<?xml version="1.0" encoding="UTF-8"?>
<svg version="1.1" xmlns="http://www.w3.org/2000/svg" width="181" height="181">
<path d="M0 0 C59.73 0 119.46 0 181 0 C181 59.73 181 119.46 181 181 C121.27 181 61.54 181 0 181 C0 121.27 0 61.54 0 0 Z " fill="#0B293E" transform="translate(0,0)"/>
<path d="M0 0 C-5.53876253 6.21379921 -15.22360676 6.72034035 -23 8 C-23.66 12.95 -24.32 17.9 -25 23 C-23.91203125 22.67386719 -22.8240625 22.34773438 -21.703125 22.01171875 C-20.21892785 21.56971487 -18.73453895 21.12835455 -17.25 20.6875 C-16.08235107 20.34029907 -16.08235107 20.34029907 -14.89111328 19.98608398 C-10.5741261 18.71520356 -6.26479465 17.56072728 -1.875 16.5625 C4.26017713 15.09243678 9.9471613 12.73535447 15.75 10.3046875 C16.8225 9.87414063 17.895 9.44359375 19 9 C19.70640625 8.69707031 20.4128125 8.39414062 21.140625 8.08203125 C23 8 23 8 25.359375 9.58203125 C26.54273437 10.68611328 26.54273437 10.68611328 27.75 11.8125 C28.54921875 12.54082031 29.3484375 13.26914062 30.171875 14.01953125 C32 16 32 16 32 18 C32.66 18 33.32 18 34 18 C34.495 19.485 34.495 19.485 35 21 C22.18586192 31.62100931 0.01492838 35.28735828 -15.90625 38.2109375 C-19.19737878 38.82171447 -22.45553277 39.54364131 -25.71875 40.2890625 C-27.24169678 40.63408813 -27.24169678 40.63408813 -28.79541016 40.98608398 C-30.79674373 41.44191333 -32.79653441 41.90459002 -34.79443359 42.37524414 C-40.67868018 43.70202418 -45.96766946 44.22915424 -52 44 C-52.43815903 37.86577363 -51.99501344 32.93152995 -48 28 C-44.875 26.625 -44.875 26.625 -41 26 C-39.29139439 25.62624252 -37.58307326 25.2511828 -35.875 24.875 C-32.51728253 24.17771043 -29.43025927 23.9145487 -26 24 C-26.01160156 23.16855469 -26.02320312 22.33710937 -26.03515625 21.48046875 C-26.04417969 20.39378906 -26.05320312 19.30710937 -26.0625 18.1875 C-26.07410156 17.10855469 -26.08570312 16.02960937 -26.09765625 14.91796875 C-26 12 -26 12 -25 9 C-25.94875 9.350625 -26.8975 9.70125 -27.875 10.0625 C-31 11 -31 11 -33 10 C-33 9.34 -33 8.68 -33 8 C-21.39341597 1.93941918 -13.14376015 -0.32813826 0 0 Z " fill="#4CA9CD" transform="translate(95,25)"/>
<path d="M0 0 C2.45391569 3.68087353 2.22802759 6.44355588 2.125 10.6875 C2.11597656 11.38939453 2.10695313 12.09128906 2.09765625 12.81445312 C2.07413704 14.54311525 2.03826713 16.27160145 2 18 C-12.39357381 26.24997523 -28.54741794 29.70804617 -44.5 33.75 C-45.65628906 34.04382568 -46.81257813 34.33765137 -48.00390625 34.64038086 C-55.29666004 36.44944012 -62.57562359 37.85799206 -70 39 C-73.24167897 39.52268775 -76.41953617 40.09403397 -79.625 40.8125 C-83 41 -83 41 -85.125 39.6875 C-87.88968877 35.72477943 -90.27463055 31.5222012 -92 27 C-91.67 26.34 -91.34 25.68 -91 25 C-88.40080106 24.59198621 -85.86589932 24.29620756 -83.25 24.0625 C-75.64804528 23.27398461 -68.41029976 21.89894452 -61 20 C-59.80503906 19.71253906 -58.61007813 19.42507812 -57.37890625 19.12890625 C-42.55582773 15.53136151 -27.83322121 11.5564295 -13.5 6.3125 C-12.32570435 5.88457153 -12.32570435 5.88457153 -11.12768555 5.44799805 C-7.1567886 3.95591137 -3.56594976 2.34192335 0 0 Z " fill="#4DACCF" transform="translate(136,61)"/>
<path d="M0 0 C11.55908974 0.16591995 22.20605651 6.78934525 30.375 14.4375 C31.03113281 15.03820313 31.68726563 15.63890625 32.36328125 16.2578125 C42.565291 26.0010595 49.08439692 38.76445459 49.578125 52.9765625 C49.87192994 71.94557616 46.23956622 85.83672952 33.05224609 99.9309082 C28.66034585 104.41309017 24.04433532 107.70782003 18.375 110.4375 C17.3025 110.994375 16.23 111.55125 15.125 112.125 C0.6449363 117.1930223 -11.94067156 117.61139601 -26.625 113.4375 C-27.285 113.1075 -27.945 112.7775 -28.625 112.4375 C-28.625 111.7775 -28.625 111.1175 -28.625 110.4375 C-27.71878906 110.581875 -26.81257813 110.72625 -25.87890625 110.875 C-9.70883314 113.33901114 3.69383104 113.10444734 17.94921875 103.9609375 C20.375 102.4375 20.375 102.4375 23.375 101.4375 C23.87 99.9525 23.87 99.9525 24.375 98.4375 C26.01929829 96.74876121 27.68884218 95.08444485 29.375 93.4375 C38.19550905 83.79006822 42.08542993 70.41645425 41.73046875 57.51953125 C40.73079024 48.85198902 37.41238344 41.07969008 33.375 33.4375 C33.375 32.7775 33.375 32.1175 33.375 31.4375 C32.715 31.4375 32.055 31.4375 31.375 31.4375 C31.024375 30.756875 30.67375 30.07625 30.3125 29.375 C23.44968422 18.97008576 10.54427359 14.48968848 -0.9375 11.4296875 C-3.625 10.4375 -3.625 10.4375 -5.625 7.4375 C-4.94088133 0.59631326 -4.94088133 0.59631326 0 0 Z " fill="#62C6DF" transform="translate(100.625,11.5625)"/>
<path d="M0 0 C2.65171248 2.37094293 4.1490052 4.83568087 5.75 8 C6.42289063 9.299375 6.42289063 9.299375 7.109375 10.625 C8 13 8 13 7 16 C-9.49848152 26.36752179 -34.91407851 32.40753291 -54 35 C-54 33.68 -54 32.36 -54 31 C-54.9075 31.350625 -55.815 31.70125 -56.75 32.0625 C-59.87758436 32.96468779 -61.05208081 33.13381507 -64 32 C-60.62902617 30.50178941 -58.79557881 30 -55 30 C-55.66 26.7 -56.32 23.4 -57 20 C-59.97 20 -62.94 20 -66 20 C-66 19.67 -66 19.34 -66 19 C-62.70908159 18.20520188 -59.41713158 17.41475663 -56.125 16.625 C-55.2071875 16.40328125 -54.289375 16.1815625 -53.34375 15.953125 C-48.87878656 14.88404925 -44.42000301 13.86976273 -39.91015625 13.0078125 C-34.95201202 12.03518563 -30.14570248 10.71533475 -25.3125 9.25 C-24.45688477 8.9926709 -23.60126953 8.7353418 -22.71972656 8.47021484 C-14.95530709 6.08305348 -7.46817182 3.19094614 0 0 Z " fill="#0D6685" transform="translate(128,47)"/>
<path d="M0 0 C0 4.96959067 -2.84026772 7.71783916 -6.03515625 11.25 C-12.43723644 17.57921098 -18.33109247 19.99405512 -27 22 C-28.63195312 22.46212891 -28.63195312 22.46212891 -30.296875 22.93359375 C-41.73647358 26.01243308 -52.28175218 25.32895998 -63 20 C-63.33 19.34 -63.66 18.68 -64 18 C-62.98164062 17.84144531 -61.96328125 17.68289062 -60.9140625 17.51953125 C-50.85923089 15.88840077 -41.16413065 13.59918392 -31.40039062 10.70898438 C-28.84847039 9.9552439 -26.29169232 9.21958034 -23.734375 8.484375 C-21.96846489 7.96972729 -20.20283332 7.45412275 -18.4375 6.9375 C-17.62885498 6.70442139 -16.82020996 6.47134277 -15.98706055 6.23120117 C-10.43873623 4.5806162 -5.23459728 2.46779448 0 0 Z " fill="#4DABCD" transform="translate(131,96)"/>
<path d="M0 0 C1.36511719 0.42442383 1.36511719 0.42442383 2.7578125 0.85742188 C9.42741276 2.98991276 9.42741276 2.98991276 11.75 5.3125 C-3.02159535 13.31094449 -18.77069638 17.55513621 -35.25 20.3125 C-35.44017585 14.89248814 -35.49969816 10.37723498 -33.25 5.3125 C-30.6514585 3.77880309 -27.93082933 3.1979235 -25 2.5625 C-23.49346731 2.19814132 -21.98821821 1.82842968 -20.484375 1.453125 C-19.75250977 1.27934326 -19.02064453 1.10556152 -18.26660156 0.92651367 C-16.00251984 0.33195391 -16.00251984 0.33195391 -13.34375 -1.49609375 C-8.49802323 -3.36218802 -4.77221869 -1.61251482 0 0 Z " fill="#0D6683" transform="translate(105.25,27.6875)"/>
<path d="M0 0 C0 0.99 0 1.98 0 3 C0.91523437 3.27714844 1.83046875 3.55429688 2.7734375 3.83984375 C3.96195313 4.20207031 5.15046875 4.56429687 6.375 4.9375 C7.55835938 5.29714844 8.74171875 5.65679687 9.9609375 6.02734375 C13 7 13 7 15 8 C14 11 14 11 12.25341797 11.96728516 C11.50721191 12.23847168 10.76100586 12.5096582 9.9921875 12.7890625 C9.16976562 13.09070313 8.34734375 13.39234375 7.5 13.703125 C6.63375 14.00734375 5.7675 14.3115625 4.875 14.625 C4.03195313 14.93695313 3.18890625 15.24890625 2.3203125 15.5703125 C-6.45025006 18.72989404 -13.30070013 19.10832287 -22.4375 17.5625 C-23.35982422 17.41490234 -24.28214844 17.26730469 -25.23242188 17.11523438 C-27.48993493 16.75262865 -29.74548026 16.38069951 -32 16 C-31.67 17.32 -31.34 18.64 -31 20 C-31.45375 19.34 -31.9075 18.68 -32.375 18 C-36.33232033 14.9848988 -40.19004145 15.66954483 -45 16 C-45 14.68 -45 13.36 -45 12 C-44.06317383 11.77860352 -43.12634766 11.55720703 -42.16113281 11.32910156 C-38.62612211 10.49214236 -35.09286966 9.6479491 -31.56005859 8.80175781 C-30.04196137 8.43916008 -28.52341756 8.07842606 -27.00439453 7.71972656 C-17.84066368 5.55430369 -8.87485409 3.19013865 0 0 Z " fill="#0C6784" transform="translate(118,86)"/>
<path d="M0 0 C0.33 0 0.66 0 1 0 C1 1.65 1 3.3 1 5 C1.84820312 4.855625 2.69640625 4.71125 3.5703125 4.5625 C12.18753657 3.19889531 20.27011203 2.76118847 29 3 C30.31626692 6.61973402 31 9.09567131 31 13 C29.35 13.66 27.7 14.32 26 15 C27.98 14.67 29.96 14.34 32 14 C31.67 15.65 31.34 17.3 31 19 C20.97533762 21.07002769 11.24638634 22.53571062 1 23 C-0.06059488 15.31068715 -0.09928082 7.75493514 0 0 Z " fill="#07273E" transform="translate(42,64)"/>
<path d="M0 0 C1.28197266 -0.02900391 1.28197266 -0.02900391 2.58984375 -0.05859375 C5.95760387 0.6170864 7.07198138 1.65077394 9.0625 4.4375 C10.1126019 10.51360688 10.24063022 16.44940526 7.0625 21.8125 C2.88739806 24.07401355 0.78212885 24.11173269 -3.9375 23.4375 C-6.15625 21.90625 -6.15625 21.90625 -7.9375 19.4375 C-8.31057106 16.59099716 -8.45395498 14.20464443 -8.375 11.375 C-8.38208984 10.65505859 -8.38917969 9.93511719 -8.39648438 9.19335938 C-8.36108302 6.26049294 -8.28435156 3.99779867 -6.71875 1.46875 C-4.37489418 0.11178084 -2.70211632 0.00406333 0 0 Z " fill="#F3F4F5" transform="translate(27.9375,146.5625)"/>
<path d="M0 0 C12.33210208 -0.49328408 12.33210208 -0.49328408 15.390625 1.765625 C17.54653341 4.7587794 17.58556652 6.517767 17.37890625 10.09765625 C17 12 17 12 15.4375 14.4375 C12.31896306 16.43656214 9.65813817 16.71860476 6 17 C6 18.98 6 20.96 6 23 C4.02 23 2.04 23 0 23 C0 15.41 0 7.82 0 0 Z " fill="#E6E9EB" transform="translate(63,147)"/>
<path d="M0 0 C4.62 0 9.24 0 14 0 C14 1.98 14 3.96 14 6 C11.69 6 9.38 6 7 6 C7 6.66 7 7.32 7 8 C8.98 8 10.96 8 13 8 C13 9.98 13 11.96 13 14 C11.02 14 9.04 14 7 14 C7 14.99 7 15.98 7 17 C9.31 17 11.62 17 14 17 C14 18.98 14 20.96 14 23 C9.38 23 4.76 23 0 23 C0 15.41 0 7.82 0 0 Z " fill="#E8EAEC" transform="translate(134,147)"/>
<path d="M0 0 C2.31 0 4.62 0 7 0 C7.99 3.63 8.98 7.26 10 11 C10.66 7.37 11.32 3.74 12 0 C14.31 0 16.62 0 19 0 C18.34240251 5.26770198 17.26735876 10.30133173 15.9375 15.4375 C15.75123047 16.16904297 15.56496094 16.90058594 15.37304688 17.65429688 C14.9186242 19.43703198 14.45977534 21.21863787 14 23 C11.03 23 8.06 23 5 23 C0 7.03333333 0 7.03333333 0 0 Z " fill="#F1F3F4" transform="translate(97,147)"/>
<path d="M0 0 C-0.33 4.95 -0.66 9.9 -1 15 C-2.49273437 15.27714844 -3.98546875 15.55429687 -5.5234375 15.83984375 C-7.47398782 16.20557194 -9.42450706 16.57146593 -11.375 16.9375 C-12.35984375 17.11990234 -13.3446875 17.30230469 -14.359375 17.49023438 C-15.77089844 17.75610352 -15.77089844 17.75610352 -17.2109375 18.02734375 C-18.51490479 18.27085571 -18.51490479 18.27085571 -19.84521484 18.51928711 C-22.03462366 18.9165899 -22.03462366 18.9165899 -24 20 C-21.58577055 12.27446576 -15.6538397 5.48275116 -9 1 C-5.74655677 -0.05926059 -3.47644882 0 0 0 Z " fill="#07273E" transform="translate(70,34)"/>
<path d="M0 0 C13.43553839 -0.91260261 13.43553839 -0.91260261 17.109375 1.23046875 C19.27866097 3.81447116 20 5.63214735 20 9 C16.89743488 9.8393758 13.79270556 10.6704505 10.6875 11.5 C9.80642578 11.73847656 8.92535156 11.97695313 8.01757812 12.22265625 C7.17001953 12.44824219 6.32246094 12.67382812 5.44921875 12.90625 C4.66893311 13.11572266 3.88864746 13.32519531 3.0847168 13.54101562 C1 14 1 14 -2 14 C-2.18246409 8.70854153 -1.83292491 5.03693539 0 0 Z " fill="#07283E" transform="translate(72,34)"/>
<path d="M0 0 C5.61 0 11.22 0 17 0 C17 1.65 17 3.3 17 5 C15.35 5 13.7 5 12 5 C12 10.94 12 16.88 12 23 C9.69 23 7.38 23 5 23 C5 17.39 5 11.78 5 6 C3.35 6 1.7 6 0 6 C0 4.02 0 2.04 0 0 Z " fill="#F0F1F3" transform="translate(152,147)"/>
<path d="M0 0 C5.61 0 11.22 0 17 0 C17 1.65 17 3.3 17 5 C15.35 5 13.7 5 12 5 C12 10.94 12 16.88 12 23 C9.69 23 7.38 23 5 23 C5 17.39 5 11.78 5 6 C3.35 6 1.7 6 0 6 C0 4.02 0 2.04 0 0 Z " fill="#F0F2F3" transform="translate(41,147)"/>
<path d="M0 0 C-0.33 1.65 -0.66 3.3 -1 5 C-2.32 5.33 -3.64 5.66 -5 6 C-5 6.66 -5 7.32 -5 8 C-4.4225 8.268125 -3.845 8.53625 -3.25 8.8125 C-0.96292251 10.01956868 0.93467141 11.45100356 3 13 C4.32 13.66 5.64 14.32 7 15 C2.05 15.66 -2.9 16.32 -8 17 C-8 16.34 -8 15.68 -8 15 C-9.61800874 13.55093667 -9.61800874 13.55093667 -11.6875 12.125 C-12.41324219 11.5990625 -13.13898437 11.073125 -13.88671875 10.53125 C-14.58410156 10.0259375 -15.28148437 9.520625 -16 9 C-17.67344761 7.67518731 -19.34348188 6.34592097 -21 5 C-20.67 4.34 -20.34 3.68 -20 3 C-17.7421875 2.65625 -17.7421875 2.65625 -14.875 2.5 C-9.88806825 2.14332738 -4.84142469 0 0 0 Z " fill="#104972" transform="translate(73,98)"/>
<path d="M0 0 C0.66 0.33 1.32 0.66 2 1 C1.01 1.99 0.02 2.98 -1 4 C-0.505 4.99 -0.505 4.99 0 6 C-15.73667911 14.59199706 -28.31416603 16.35163013 -46 13 C-45.360625 12.690625 -44.72125 12.38125 -44.0625 12.0625 C-42.06389179 11.1654837 -42.06389179 11.1654837 -41 10 C-39.41570256 10.06237392 -37.8324718 10.15165429 -36.25 10.25 C-29.96402466 10.31816118 -24.22664379 9.14571456 -18.125 7.6875 C-16.77003418 7.36797363 -16.77003418 7.36797363 -15.38769531 7.04199219 C-9.70742511 5.6266705 -4.25126847 4.25126847 0 0 Z " fill="#0C3049" transform="translate(120,110)"/>
<path d="M0 0 C2.31 0 4.62 0 7 0 C7 7.59 7 15.18 7 23 C4.69 23 2.38 23 0 23 C0 15.41 0 7.82 0 0 Z " fill="#EBEDEF" transform="translate(121,147)"/>
<path d="M0 0 C-5.53876253 6.21379921 -15.22360676 6.72034035 -23 8 C-23.66 12.95 -24.32 17.9 -25 23 C-24.34 23.33 -23.68 23.66 -23 24 C-23.99 24 -24.98 24 -26 24 C-26.02703381 22.06257659 -26.04641125 20.12504521 -26.0625 18.1875 C-26.07410156 17.10855469 -26.08570312 16.02960937 -26.09765625 14.91796875 C-26 12 -26 12 -25 9 C-25.94875 9.350625 -26.8975 9.70125 -27.875 10.0625 C-31 11 -31 11 -33 10 C-33 9.34 -33 8.68 -33 8 C-21.39341597 1.93941918 -13.14376015 -0.32813826 0 0 Z " fill="#1B659B" transform="translate(95,25)"/>
<path d="M0 0 C0 1.32 0 2.64 0 4 C-3.14175409 4.9925859 -6.2890103 5.966512 -9.4375 6.9375 C-10.75524414 7.35418945 -10.75524414 7.35418945 -12.09960938 7.77929688 C-17.76755648 9.5152364 -23.0889531 10.52495147 -29 11 C-29.33 9.68 -29.66 8.36 -30 7 C-26.12895002 5.81994399 -22.25259282 4.65835818 -18.375 3.5 C-17.28058594 3.16613281 -16.18617187 2.83226563 -15.05859375 2.48828125 C-13.99511719 2.17246094 -12.93164062 1.85664062 -11.8359375 1.53125 C-10.86188965 1.23798828 -9.8878418 0.94472656 -8.88427734 0.64257812 C-5.83668441 -0.03638451 -3.11217452 -0.1130232 0 0 Z " fill="#082A41" transform="translate(105,70)"/>
<path d="M0 0 C1 2 1 2 0.22265625 4.6015625 C-0.35162109 6.09816406 -0.35162109 6.09816406 -0.9375 7.625 C-1.31777344 8.62789062 -1.69804687 9.63078125 -2.08984375 10.6640625 C-2.39019531 11.43492188 -2.69054687 12.20578125 -3 13 C-3.72445312 12.86722656 -4.44890625 12.73445313 -5.1953125 12.59765625 C-10.12491105 11.69718291 -15.05322123 10.80218034 -20 10 C-17.09205634 6.72941866 -14.70460495 5.24229678 -10.5625 3.875 C-6.99483427 2.67420013 -3.4836488 1.42886502 0 0 Z " fill="#165787" transform="translate(135,80)"/>
<path d="M0 0 C0.66 4.62 1.32 9.24 2 14 C-0.98212913 15.49106457 -3.71609658 15.11941467 -7 15 C-8 14 -8 14 -8.09765625 11.05859375 C-8.08605469 9.86363281 -8.07445312 8.66867188 -8.0625 7.4375 C-8.05347656 6.23996094 -8.04445312 5.04242188 -8.03515625 3.80859375 C-8.02355469 2.88175781 -8.01195312 1.95492187 -8 1 C-5 0 -5 0 0 0 Z " fill="#07283F" transform="translate(52,68)"/>
<path d="M0 0 C0.33 0 0.66 0 1 0 C1.66 5.94 2.32 11.88 3 18 C5.97 18 8.94 18 12 18 C11.67 17.154375 11.34 16.30875 11 15.4375 C9.93894046 11.79010784 9.84890987 8.77725336 10 5 C12.39073445 8.82517513 12.55966552 12.59665524 13 17 C16.96 16.505 16.96 16.505 21 16 C20.01 16.66 19.02 17.32 18 18 C20.64 18.33 23.28 18.66 26 19 C26 19.33 26 19.66 26 20 C17.69187796 21.74640116 9.47097928 22.53007706 1 23 C-0.06059488 15.31068715 -0.09928082 7.75493514 0 0 Z " fill="#115C84" transform="translate(42,64)"/>
<path d="M0 0 C3.43821706 0.11370953 6.87508925 0.24046338 10.3125 0.375 C11.28896484 0.4059375 12.26542969 0.436875 13.27148438 0.46875 C14.20927734 0.50742188 15.14707031 0.54609375 16.11328125 0.5859375 C16.97735596 0.6173584 17.84143066 0.6487793 18.73168945 0.68115234 C21 1 21 1 24 3 C20.54289448 4.00427892 17.08412303 5.0026944 13.625 6 C12.64015625 6.28617187 11.6553125 6.57234375 10.640625 6.8671875 C9.22910156 7.27324219 9.22910156 7.27324219 7.7890625 7.6875 C6.91975098 7.93886719 6.05043945 8.19023438 5.15478516 8.44921875 C3 9 3 9 1 9 C0.67 6.03 0.34 3.06 0 0 Z " fill="#07283F" transform="translate(73,67)"/>
<path d="M0 0 C1.8125 1.1875 1.8125 1.1875 3 3 C3.42822025 5.85480169 3.40659584 7.34492892 1.875 9.8125 C-0.83445834 11.52849028 -2.86295684 11.333728 -6 11 C-8 9 -8 9 -8.3125 6.0625 C-8 3 -8 3 -6.8125 1.125 C-4.34492892 -0.40659584 -2.85480169 -0.42822025 0 0 Z " fill="#6ED5E9" transform="translate(87,9)"/>
<path d="M0 0 C1.63077427 2.13446908 3.19219728 4.28585462 4.69140625 6.515625 C11.94315552 17.1131709 20.09319662 23.29160627 32 28 C31.67 28.99 31.34 29.98 31 31 C18.31212035 27.74669753 8.71194459 17.7320275 2 7 C0.4468511 4.25795862 0 3.22560597 0 0 Z " fill="#1F6BA2" transform="translate(41,93)"/>
<path d="M0 0 C1.16796875 2.28515625 1.16796875 2.28515625 2.1875 5.0625 C2.53167969 5.98160156 2.87585938 6.90070312 3.23046875 7.84765625 C3.48441406 8.55792969 3.73835937 9.26820312 4 10 C0.55484102 9.62510465 -2.71961958 9.14100188 -6 8 C-8.125 4.875 -8.125 4.875 -9 2 C-3.375 -1.125 -3.375 -1.125 0 0 Z " fill="#082A41" transform="translate(129,49)"/>
<path d="M0 0 C-0.33 0.99 -0.66 1.98 -1 3 C-1.60457031 3.14566406 -2.20914063 3.29132812 -2.83203125 3.44140625 C-5.76334641 4.19668205 -6.76879204 5.63588286 -8.6875 7.9375 C-9.59048828 9.00291016 -9.59048828 9.00291016 -10.51171875 10.08984375 C-12.0485636 11.93300348 -12.0485636 11.93300348 -13 14 C-12.01 13.7215625 -12.01 13.7215625 -11 13.4375 C-7.10669886 12.86972692 -3.88624521 13.40718293 0 14 C-3.31735556 15.91509174 -6.35168863 16.5108734 -10.125 17.0625 C-14.19987152 17.59521491 -14.19987152 17.59521491 -18 19 C-15.77388923 11.87644554 -8.22084296 0 0 0 Z " fill="#135C87" transform="translate(64,35)"/>
<path d="M0 0 C1.9375 0.8125 1.9375 0.8125 3.9375 2.8125 C3.57068342 5.74703261 3.07312754 6.67687246 0.9375 8.8125 C-1.6875 8.4375 -1.6875 8.4375 -4.0625 7.8125 C-4.75 5.5 -4.75 5.5 -5.0625 2.8125 C-3.54188901 0.41153528 -2.87462184 -0.26132926 0 0 Z " fill="#69CDE0" transform="translate(68.0625,13.1875)"/>
<path d="M0 0 C1.93166016 0.01740234 1.93166016 0.01740234 3.90234375 0.03515625 C5.19269531 0.04417969 6.48304687 0.05320312 7.8125 0.0625 C8.81152344 0.07410156 9.81054688 0.08570312 10.83984375 0.09765625 C7.40529311 3.71036802 4.58297945 5.03187754 -0.47265625 5.22265625 C-1.35953125 5.18140625 -2.24640625 5.14015625 -3.16015625 5.09765625 C-3.72265625 3.16015625 -3.72265625 3.16015625 -4.16015625 1.09765625 C-3.16015625 0.09765625 -3.16015625 0.09765625 0 0 Z " fill="#7CEBF7" transform="translate(84.16015625,24.90234375)"/>
<path d="M0 0 C-0.64695913 4.04349453 -2.35912346 7.87372871 -5 11 C-8.25 11.9375 -8.25 11.9375 -11 12 C-9.7698784 7.48955412 -5.21930776 0 0 0 Z " fill="#0C3859" transform="translate(62,37)"/>
<path d="M0 0 C5.28 0.66 10.56 1.32 16 2 C13.65085508 4.34914492 12.04320554 4.73140357 8.875 5.625 C7.96492188 5.88539062 7.05484375 6.14578125 6.1171875 6.4140625 C5.41851562 6.60742188 4.71984375 6.80078125 4 7 C2.02 3.535 2.02 3.535 0 0 Z " fill="#08293F" transform="translate(90,35)"/>
<path d="M0 0 C-0.33 1.65 -0.66 3.3 -1 5 C-6.28 5 -11.56 5 -17 5 C-14 3 -14 3 -11 3 C-10.67 2.34 -10.34 1.68 -10 1 C-6.61964088 0.37400757 -3.43830115 0 0 0 Z " fill="#0A304A" transform="translate(74,78)"/>
<path d="M0 0 C0.99 0 1.98 0 3 0 C3 4.29 3 8.58 3 13 C1.68 12.67 0.36 12.34 -1 12 C-1.02687279 10.18757948 -1.04633715 8.37504767 -1.0625 6.5625 C-1.07410156 5.55316406 -1.08570312 4.54382813 -1.09765625 3.50390625 C-1 1 -1 1 0 0 Z " fill="#2C4659" transform="translate(27,152)"/>
<path d="M0 0 C2.02408755 0.09002398 4.04544287 0.24641038 6.0625 0.4375 C7.71958984 0.59025391 7.71958984 0.59025391 9.41015625 0.74609375 C10.26480469 0.82988281 11.11945313 0.91367188 12 1 C10.02 1.99 10.02 1.99 8 3 C10.64 3.33 13.28 3.66 16 4 C16 4.33 16 4.66 16 5 C8.7725395 5.24091535 2.09705662 4.34495828 -5 3 C-4.360625 2.690625 -3.72125 2.38125 -3.0625 2.0625 C-1.06389179 1.1654837 -1.06389179 1.1654837 0 0 Z " fill="#134567" transform="translate(79,120)"/>
<path d="M0 0 C0.66 1.65 1.32 3.3 2 5 C-0.475 6.485 -0.475 6.485 -3 8 C-4.98 5.69 -6.96 3.38 -9 1 C-5.94152152 0.45627049 -3.11227195 0 0 0 Z " fill="#082B45" transform="translate(63,100)"/>
<path d="M0 0 C1.65567632 2.18528707 3.27633701 4.38791241 4.8671875 6.62109375 C8.30396812 11.4419475 11.6052245 16.01723471 16 20 C11.6810597 19.52011774 9.78346687 17.181105 7 14 C3.59685564 9.46247419 0.84338486 5.70288807 0 0 Z " fill="#1C6295" transform="translate(41,93)"/>
<path d="M0 0 C0.33 0.99 0.66 1.98 1 3 C1.66 3.66 2.32 4.32 3 5 C-0.3 5.33 -3.6 5.66 -7 6 C-6.67 4.35 -6.34 2.7 -6 1 C-3 0 -3 0 0 0 Z " fill="#439DC3" transform="translate(80,26)"/>
<path d="M0 0 C1.65 0.33 3.3 0.66 5 1 C5.33 1.99 5.66 2.98 6 4 C5.67 4.66 5.34 5.32 5 6 C3.35 6 1.7 6 0 6 C-1.125 2.25 -1.125 2.25 0 0 Z " fill="#68CBDE" transform="translate(53,23)"/>
<path d="M0 0 C-0.33 1.65 -0.66 3.3 -1 5 C-3.31 5 -5.62 5 -8 5 C-8 4.01 -8 3.02 -8 2 C-4.91190305 0.23537317 -3.76687864 0 0 0 Z " fill="#092C43" transform="translate(134,82)"/>
<path d="M0 0 C1.98 0 3.96 0 6 0 C5.34 1.65 4.68 3.3 4 5 C2.35 4.67 0.7 4.34 -1 4 C-0.67 2.68 -0.34 1.36 0 0 Z " fill="#082D47" transform="translate(126,88)"/>
<path d="M0 0 C1.32 0 2.64 0 4 0 C4 1.32 4 2.64 4 4 C4.66 4.33 5.32 4.66 6 5 C4.02 5 2.04 5 0 5 C-0.5625 3.0625 -0.5625 3.0625 -1 1 C-0.67 0.67 -0.34 0.34 0 0 Z " fill="#66CBE0" transform="translate(81,25)"/>
<path d="M0 0 C0.33 0.99 0.66 1.98 1 3 C-1.97 2.67 -4.94 2.34 -8 2 C-6.20734607 -1.58530786 -3.34030841 -1.33612336 0 0 Z " fill="#0B3047" transform="translate(120,53)"/>
<path d="M0 0 C-1.485 1.485 -1.485 1.485 -3 3 C-3 2.34 -3 1.68 -3 1 C-5.97 1 -8.94 1 -12 1 C-12 0.67 -12 0.34 -12 0 C-7.74433453 -1.16063604 -4.3164922 -0.76173392 0 0 Z " fill="#0E5578" transform="translate(74,66)"/>
<path d="M0 0 C0 0.99 0 1.98 0 3 C-2.97 2.67 -5.94 2.34 -9 2 C-5.5647952 -0.29013653 -4.014669 -0.17842973 0 0 Z " fill="#09304C" transform="translate(124,88)"/>
<path d="M0 0 C2.64 0 5.28 0 8 0 C6.75 1.5625 6.75 1.5625 5 3 C2.875 2.8125 2.875 2.8125 1 2 C0.67 1.34 0.34 0.68 0 0 Z " fill="#082C46" transform="translate(64,100)"/>
</svg>
